<svg xmlns="http://www.w3.org/2000/svg" viewBox="0 0 600 254" width="600" height="254" role="img" aria-label="Win rate by architecture in the repeated duel and Melee Light">
  <g font-family="Baskerville, Georgia, serif">
    <text x="0" y="12" font-size="13" font-style="italic" fill="#1a1a1a">Repeated duel</text>
    <line x1="200.0" y1="26" x2="200.0" y2="116" stroke="#dcdbd0" stroke-width="1"/>
    <text x="200.0" y="131" font-size="11" text-anchor="middle" fill="#5c5c57">0%</text>
    <line x1="286.0" y1="26" x2="286.0" y2="116" stroke="#dcdbd0" stroke-width="1"/>
    <text x="286.0" y="131" font-size="11" text-anchor="middle" fill="#5c5c57">25%</text>
    <line x1="372.0" y1="26" x2="372.0" y2="116" stroke="#dcdbd0" stroke-width="1"/>
    <text x="372.0" y="131" font-size="11" text-anchor="middle" fill="#5c5c57">50%</text>
    <line x1="458.0" y1="26" x2="458.0" y2="116" stroke="#dcdbd0" stroke-width="1"/>
    <text x="458.0" y="131" font-size="11" text-anchor="middle" fill="#5c5c57">75%</text>
    <line x1="544.0" y1="26" x2="544.0" y2="116" stroke="#dcdbd0" stroke-width="1"/>
    <text x="544.0" y="131" font-size="11" text-anchor="middle" fill="#5c5c57">100%</text>
    <text x="190" y="41.0" font-size="12" text-anchor="end" dominant-baseline="central" fill="#1a1a1a">Full hypernetwork · GRU</text>
    <path d="M200 32.0 H432.3 Q436.3 32.0 436.3 36.0 V46.0 Q436.3 50.0 432.3 50.0 H200 Z" fill="#3c3c38"/>
    <text x="442.3" y="41.0" font-size="12" dominant-baseline="central" fill="#1a1a1a">68.7%</text>
    <text x="190" y="71.0" font-size="12" text-anchor="end" dominant-baseline="central" fill="#1a1a1a">Hyper head · GRU</text>
    <path d="M200 62.0 H424.1 Q428.1 62.0 428.1 66.0 V76.0 Q428.1 80.0 424.1 80.0 H200 Z" fill="#3c3c38"/>
    <text x="434.1" y="71.0" font-size="12" dominant-baseline="central" fill="#1a1a1a">66.3%</text>
    <text x="190" y="101.0" font-size="12" text-anchor="end" dominant-baseline="central" fill="#1a1a1a">Static baseline · mean</text>
    <path d="M200 92.0 H418.6 Q422.6 92.0 422.6 96.0 V106.0 Q422.6 110.0 418.6 110.0 H200 Z" fill="#8a8a80"/>
    <text x="428.6" y="101.0" font-size="12" dominant-baseline="central" fill="#1a1a1a">64.7%</text>
    <line x1="200" y1="26" x2="200" y2="116" stroke="#5c5c57" stroke-width="1"/>
    <text x="0" y="158" font-size="13" font-style="italic" fill="#1a1a1a">Melee Light</text>
    <line x1="200.0" y1="172" x2="200.0" y2="232" stroke="#dcdbd0" stroke-width="1"/>
    <text x="200.0" y="247" font-size="11" text-anchor="middle" fill="#5c5c57">0%</text>
    <line x1="286.0" y1="172" x2="286.0" y2="232" stroke="#dcdbd0" stroke-width="1"/>
    <text x="286.0" y="247" font-size="11" text-anchor="middle" fill="#5c5c57">25%</text>
    <line x1="372.0" y1="172" x2="372.0" y2="232" stroke="#dcdbd0" stroke-width="1"/>
    <text x="372.0" y="247" font-size="11" text-anchor="middle" fill="#5c5c57">50%</text>
    <line x1="458.0" y1="172" x2="458.0" y2="232" stroke="#dcdbd0" stroke-width="1"/>
    <text x="458.0" y="247" font-size="11" text-anchor="middle" fill="#5c5c57">75%</text>
    <line x1="544.0" y1="172" x2="544.0" y2="232" stroke="#dcdbd0" stroke-width="1"/>
    <text x="544.0" y="247" font-size="11" text-anchor="middle" fill="#5c5c57">100%</text>
    <text x="190" y="187.0" font-size="12" text-anchor="end" dominant-baseline="central" fill="#1a1a1a">Full hypernetwork · GRU</text>
    <path d="M200 178.0 H298.2 Q302.2 178.0 302.2 182.0 V192.0 Q302.2 196.0 298.2 196.0 H200 Z" fill="#3c3c38"/>
    <text x="308.2" y="187.0" font-size="12" dominant-baseline="central" fill="#1a1a1a">29.7%</text>
    <text x="190" y="217.0" font-size="12" text-anchor="end" dominant-baseline="central" fill="#1a1a1a">Static baseline · mean</text>
    <path d="M200 208.0 H260.7 Q264.7 208.0 264.7 212.0 V222.0 Q264.7 226.0 260.7 226.0 H200 Z" fill="#8a8a80"/>
    <text x="270.7" y="217.0" font-size="12" dominant-baseline="central" fill="#1a1a1a">18.8%</text>
    <line x1="200" y1="172" x2="200" y2="232" stroke="#5c5c57" stroke-width="1"/>
  </g>
</svg>
