<svg xmlns="http://www.w3.org/2000/svg" viewBox="0 0 300 200" width="300" height="200">
  <rect width="300" height="200" fill="#f7f6ee"/>
  <rect x="0.5" y="0.5" width="299" height="199" fill="none" stroke="#dcdbd0"/>
  <g stroke="#9c9c92" stroke-width="1" fill="none">
    <path d="M92 58 L208 58 M92 58 L208 98 M92 98 L208 58 M92 98 L208 138 M92 138 L208 98 M92 138 L208 138"/>
  </g>
  <g stroke="#3c3c38" stroke-width="1.8" fill="none">
    <path d="M92 58 L208 98 M92 98 L208 58 M92 138 L208 138"/>
  </g>
  <g fill="#fffffa" stroke="#1a1a1a" stroke-width="1.2">
    <circle cx="92" cy="58" r="9"/><circle cx="92" cy="98" r="9"/><circle cx="92" cy="138" r="9"/>
    <rect x="199" y="49" width="18" height="18"/><rect x="199" y="89" width="18" height="18"/><rect x="199" y="129" width="18" height="18"/>
  </g>
  <g font-family="Source Serif 4, Baskerville, Georgia, serif" fill="#5c5c57">
    <text x="150" y="28" text-anchor="middle" font-size="15" font-style="italic">preference-conditioned allocation</text>
    <text x="78" y="166" text-anchor="middle" font-size="10">agents</text>
    <text x="222" y="166" text-anchor="middle" font-size="10">resources</text>
    <text x="150" y="190" text-anchor="middle" font-size="12" letter-spacing="0.08em">GRAPHALLOCBENCH</text>
  </g>
</svg>
